<svg version="1.1" id="Layer_1"
  xmlns="http://www.w3.org/2000/svg"
  xmlns:xlink="http://www.w3.org/1999/xlink" x="0px" y="0px" viewBox="0 0 300 188.6" style="enable-background: new 0 0 1227.9 188.6" xml:space="preserve">

  <title>Mailazy Logo</title>
  <circle class="st0" cx="241.2" cy="85.7" r="5.3"></circle>
  <g>
  </g>
  <g>
    <path fill="currentColor" class="st001" d="M284.6,15.2c2.5-6.2,1.1-10.8-3.8-12.9s-9.5,0.3-11.9,6.3c-3.6,8.8-7.1,17.6-10.4,26.6
          c-1.2,3.3-2.8,4.6-6.4,4.6c-3.7,0-4.9-1.8-5.8-4.7c-2.9-9.2-5.9-18.5-8.9-27.6c-1.9-5.7-6.2-8.4-10.7-7c-5.1,1.6-7.3,6-5.5,11.9
          c2.8,9.3,5.7,18.5,8.8,27.7c1.1,3.3,1.1,5.4-2.3,7.4c-4.3,2.5-7.8,6-11.2,9.6c-10.7,11.3-17.7,24.9-24.6,38.7
          c-4.7,9.4-9.9,18.3-16.1,26.7c-5.5,7.5-11.8,14.4-19,20.6c-32.2,27.8-68.7,33.1-108.2,18.8C32,155.9,20.8,144,17.8,126
          c-0.3-1.9-0.5-3.8-0.6-5.7c-0.6-10.7,1.9-21,6.5-30.8c12.5-26.7,33.8-43.8,61.1-53.6c18.1-6.5,36.4-8.1,54.6,0
          c19.5,8.7,27.4,30.5,18.2,49.6c-3.1,6.4-6.8,12.3-11.1,17.8c-2.8,3.6-5.9,7.1-9.3,10.4c-4.9,4.8-10.2,9.2-17,11.4
          c-2.3,0.7-4.5,1.3-6.5-0.6c-1.9-1.8-1-3.9-0.5-5.9c1.2-4.5,3.2-8.6,5.6-12.5c1.7-2.9,3.4-5.9,4.5-9c0.8-2.1,1.4-4.3,1.6-6.6
          c2.7-22.5-18.9-39-39.5-30.4c-19.7,8.2-32.6,22.1-37.7,41.8c-0.7,2.6-1.2,5.2-1.6,8c-2.8,19,9.5,32.3,28.7,31.7
          c7.5-0.2,14.1-3.1,20-7.3c1.8-1.3,3.2-1.9,4.9,0.2c8.1,10,21.6,9.7,32.3,3.8c12.5-6.9,22.2-16.5,30.2-27.6
          c3.7-5.2,7.1-10.8,10.2-16.7c13.4-25.3,5-55.6-19.6-70.5c-16-9.7-33.3-11.3-51.5-9.3c-44.9,5.1-85.5,38.7-98,82.2
          c-6.6,22.9-3.6,44.4,12.6,62.9c0.6,0.7,1.3,1.4,1.9,2.1l0.1,0.1c1.3,1.2,2.6,2.4,4,3.6l0.1,0.1c14.2,11.7,38.1,19.7,65.7,21h3.5
          c7.1-0.1,14.3-0.3,21.4-0.7c7.5-0.4,15-0.9,22.5-1.7c32.1-3.5,62.7-11.5,90.6-28.2c22.7-13.6,41.6-31,52.5-55.7
          c7.8-17.6,9.5-35.1-4.3-51c-1.5-1.8-1.2-3.4-0.5-5.3C277.2,34.2,280.8,24.7,284.6,15.2z M107.8,88.8c-5.4,14.4-13.8,26.9-28,34.5
          c-2.2,1.2-4.7,1.3-7.2,1.4c-6.6-0.1-9.8-3.7-9.7-11c0.2-15.6,15.8-35,31-38.5C102.1,73.3,110.7,81.1,107.8,88.8z M266.5,79.4
          c-1.9,14.1-9.3,25.7-18.5,36.1c-20.4,23.2-46.9,36-76.1,44.2c-2.5,0.7-5.1,1.3-7.7,1.9c-0.4,0.1-1-0.1-1.5-0.2
          c-0.1-1.8,1.4-2.4,2.4-3.3c17.9-14.9,31.1-33.5,41.6-54.1c5.3-10.3,10.3-20.8,17.6-30c3.9-4.9,8-9.4,13.2-12.8
          c6.4-4.3,13.5-7.2,20.7-2.7C266,63.1,267.6,71.1,266.5,79.4z M241.2,80.4c-2.9,0-5.3,2.4-5.3,5.3s2.4,5.3,5.3,5.3s5.3-2.4,5.3-5.3
          S244.1,80.4,241.2,80.4z"></path>
    <circle class="st001" cx="241.2" cy="85.7" r="5.3"></circle>
  </g>
</svg>
